<mxfile host="app.diagrams.net" agent="Mozilla/5.0 (Windows NT 10.0; Win64; x64) AppleWebKit/537.36 (KHTML, like Gecko) Chrome/131.0.0.0 Safari/537.36" version="24.9.0">
  <diagram name="Page-1" id="K_Mi9hQZ4IC5AG21IJpg">
    <mxGraphModel dx="1050" dy="557" grid="1" gridSize="10" guides="1" tooltips="1" connect="1" arrows="1" fold="1" page="1" pageScale="1" pageWidth="827" pageHeight="1169" math="0" shadow="0">
      <root>
        <mxCell id="0" />
        <mxCell id="1" parent="0" />
        <mxCell id="eZ4TX1kPVXQ7JoQ5TpgB-1" value="Open Change Password Page" style="whiteSpace=wrap;strokeWidth=2;" vertex="1" parent="1">
          <mxGeometry x="291" y="20" width="224" height="66" as="geometry" />
        </mxCell>
        <mxCell id="eZ4TX1kPVXQ7JoQ5TpgB-2" value="Is User Logged In?" style="rhombus;strokeWidth=2;whiteSpace=wrap;" vertex="1" parent="1">
          <mxGeometry x="315" y="136" width="176" height="176" as="geometry" />
        </mxCell>
        <mxCell id="eZ4TX1kPVXQ7JoQ5TpgB-3" value="Allow to Proceed to Change Password" style="whiteSpace=wrap;strokeWidth=2;" vertex="1" parent="1">
          <mxGeometry x="136" y="384" width="259" height="66" as="geometry" />
        </mxCell>
        <mxCell id="eZ4TX1kPVXQ7JoQ5TpgB-4" value="Redirect to Login Page" style="whiteSpace=wrap;strokeWidth=2;" vertex="1" parent="1">
          <mxGeometry x="566" y="1007" width="221" height="48" as="geometry" />
        </mxCell>
        <mxCell id="eZ4TX1kPVXQ7JoQ5TpgB-5" value="User Enters password" style="whiteSpace=wrap;strokeWidth=2;" vertex="1" parent="1">
          <mxGeometry x="203" y="500" width="126" height="48" as="geometry" />
        </mxCell>
        <mxCell id="eZ4TX1kPVXQ7JoQ5TpgB-6" value="Submit" style="whiteSpace=wrap;strokeWidth=2;" vertex="1" parent="1">
          <mxGeometry x="97" y="621" width="110" height="48" as="geometry" />
        </mxCell>
        <mxCell id="eZ4TX1kPVXQ7JoQ5TpgB-7" value="Is Current Password Correct?" style="rhombus;strokeWidth=2;whiteSpace=wrap;" vertex="1" parent="1">
          <mxGeometry x="49" y="719" width="206" height="206" as="geometry" />
        </mxCell>
        <mxCell id="eZ4TX1kPVXQ7JoQ5TpgB-8" value="Display Warning: Wrong Password" style="whiteSpace=wrap;strokeWidth=2;" vertex="1" parent="1">
          <mxGeometry x="288" y="998" width="228" height="66" as="geometry" />
        </mxCell>
        <mxCell id="eZ4TX1kPVXQ7JoQ5TpgB-9" value="Update User Password" style="whiteSpace=wrap;strokeWidth=2;" vertex="1" parent="1">
          <mxGeometry x="20" y="1007" width="218" height="48" as="geometry" />
        </mxCell>
        <mxCell id="eZ4TX1kPVXQ7JoQ5TpgB-10" value="End" style="whiteSpace=wrap;strokeWidth=2;" vertex="1" parent="1">
          <mxGeometry x="360" y="1114" width="86" height="48" as="geometry" />
        </mxCell>
        <mxCell id="eZ4TX1kPVXQ7JoQ5TpgB-11" value="" style="curved=1;startArrow=none;endArrow=block;exitX=0.5;exitY=1;entryX=0.5;entryY=0;rounded=0;" edge="1" parent="1" source="eZ4TX1kPVXQ7JoQ5TpgB-1" target="eZ4TX1kPVXQ7JoQ5TpgB-2">
          <mxGeometry relative="1" as="geometry">
            <Array as="points" />
          </mxGeometry>
        </mxCell>
        <mxCell id="eZ4TX1kPVXQ7JoQ5TpgB-12" value="Yes" style="curved=1;startArrow=none;endArrow=block;exitX=0;exitY=0.95;entryX=0.5;entryY=0;rounded=0;" edge="1" parent="1" source="eZ4TX1kPVXQ7JoQ5TpgB-2" target="eZ4TX1kPVXQ7JoQ5TpgB-3">
          <mxGeometry relative="1" as="geometry">
            <Array as="points">
              <mxPoint x="266" y="348" />
            </Array>
          </mxGeometry>
        </mxCell>
        <mxCell id="eZ4TX1kPVXQ7JoQ5TpgB-13" value="No" style="curved=1;startArrow=none;endArrow=block;exitX=1;exitY=0.72;entryX=0.5;entryY=-0.01;rounded=0;" edge="1" parent="1" source="eZ4TX1kPVXQ7JoQ5TpgB-2" target="eZ4TX1kPVXQ7JoQ5TpgB-4">
          <mxGeometry relative="1" as="geometry">
            <Array as="points">
              <mxPoint x="677" y="348" />
            </Array>
          </mxGeometry>
        </mxCell>
        <mxCell id="eZ4TX1kPVXQ7JoQ5TpgB-14" value="" style="curved=1;startArrow=none;endArrow=block;exitX=0.5;exitY=1;entryX=0.5;entryY=0;rounded=0;" edge="1" parent="1" source="eZ4TX1kPVXQ7JoQ5TpgB-3" target="eZ4TX1kPVXQ7JoQ5TpgB-5">
          <mxGeometry relative="1" as="geometry">
            <Array as="points" />
          </mxGeometry>
        </mxCell>
        <mxCell id="eZ4TX1kPVXQ7JoQ5TpgB-15" value="" style="curved=1;startArrow=none;endArrow=block;exitX=0.14;exitY=1.01;entryX=0.5;entryY=0;rounded=0;" edge="1" parent="1" source="eZ4TX1kPVXQ7JoQ5TpgB-5" target="eZ4TX1kPVXQ7JoQ5TpgB-6">
          <mxGeometry relative="1" as="geometry">
            <Array as="points">
              <mxPoint x="152" y="585" />
            </Array>
          </mxGeometry>
        </mxCell>
        <mxCell id="eZ4TX1kPVXQ7JoQ5TpgB-16" value="" style="curved=1;startArrow=none;endArrow=block;exitX=0.5;exitY=1;entryX=0.5;entryY=0;rounded=0;" edge="1" parent="1" source="eZ4TX1kPVXQ7JoQ5TpgB-6" target="eZ4TX1kPVXQ7JoQ5TpgB-7">
          <mxGeometry relative="1" as="geometry">
            <Array as="points" />
          </mxGeometry>
        </mxCell>
        <mxCell id="eZ4TX1kPVXQ7JoQ5TpgB-17" value="No" style="curved=1;startArrow=none;endArrow=block;exitX=0.99;exitY=1;entryX=0.26;entryY=0;rounded=0;" edge="1" parent="1" source="eZ4TX1kPVXQ7JoQ5TpgB-7" target="eZ4TX1kPVXQ7JoQ5TpgB-8">
          <mxGeometry relative="1" as="geometry">
            <Array as="points">
              <mxPoint x="288" y="962" />
            </Array>
          </mxGeometry>
        </mxCell>
        <mxCell id="eZ4TX1kPVXQ7JoQ5TpgB-18" value="Yes" style="curved=1;startArrow=none;endArrow=block;exitX=0.42;exitY=1;entryX=0.5;entryY=-0.01;rounded=0;" edge="1" parent="1" source="eZ4TX1kPVXQ7JoQ5TpgB-7" target="eZ4TX1kPVXQ7JoQ5TpgB-9">
          <mxGeometry relative="1" as="geometry">
            <Array as="points">
              <mxPoint x="129" y="962" />
            </Array>
          </mxGeometry>
        </mxCell>
        <mxCell id="eZ4TX1kPVXQ7JoQ5TpgB-19" value="" style="curved=1;startArrow=none;endArrow=block;exitX=0.5;exitY=1;entryX=0;entryY=0.34;rounded=0;" edge="1" parent="1" source="eZ4TX1kPVXQ7JoQ5TpgB-9" target="eZ4TX1kPVXQ7JoQ5TpgB-10">
          <mxGeometry relative="1" as="geometry">
            <Array as="points">
              <mxPoint x="129" y="1089" />
            </Array>
          </mxGeometry>
        </mxCell>
        <mxCell id="eZ4TX1kPVXQ7JoQ5TpgB-20" value="" style="curved=1;startArrow=none;endArrow=block;exitX=0.76;exitY=0;entryX=1;entryY=0.81;rounded=0;" edge="1" parent="1" source="eZ4TX1kPVXQ7JoQ5TpgB-8" target="eZ4TX1kPVXQ7JoQ5TpgB-5">
          <mxGeometry relative="1" as="geometry">
            <Array as="points">
              <mxPoint x="524" y="962" />
              <mxPoint x="524" y="585" />
            </Array>
          </mxGeometry>
        </mxCell>
        <mxCell id="eZ4TX1kPVXQ7JoQ5TpgB-21" value="" style="curved=1;startArrow=none;endArrow=block;exitX=0.5;exitY=1;entryX=1;entryY=0.34;rounded=0;" edge="1" parent="1" source="eZ4TX1kPVXQ7JoQ5TpgB-4" target="eZ4TX1kPVXQ7JoQ5TpgB-10">
          <mxGeometry relative="1" as="geometry">
            <Array as="points">
              <mxPoint x="677" y="1089" />
            </Array>
          </mxGeometry>
        </mxCell>
      </root>
    </mxGraphModel>
  </diagram>
</mxfile>
